# xmcd CD database file
#
# Track frame offsets:
#	150
#	9574
#	39858
#	69797
#	103763
#	129958
#	146371
#	185491
#	208252
#	231142
#	246336
#	275350
#	313810
#	327651
#	342323
#
# Disc length: 4689 seconds
#
# Revision: 0
# Processed by: cddbd v1.5.2PL0 Copyright (c) Steve Scherf et al.
# Submitted via: CDex 1.51
#
DISCID=da124f0f
DTITLE=Joshua Redman - Compass
DYEAR=2009
DGENRE=Jazz
TTITLE0=Uncharted
TTITLE1=Faraway
TTITLE2=Identity Thief
TTITLE3=Just Like You
TTITLE4=Hutchhiker's Guide
TTITLE5=Ghost
TTITLE6=Insomnomaniac
TTITLE7=Moonlight
TTITLE8=Un Peu Fou
TTITLE9=March
TTITLE10=Round Reuben
TTITLE11=Little Ditty
TTITLE12=Through The Valley
TTITLE13=Another Blues
TTITLE14=Alef Ituk
EXTD=YEAR: 2009
EXTT0=
EXTT1=
EXTT2=
EXTT3=
EXTT4=
EXTT5=
EXTT6=
EXTT7=
EXTT8=
EXTT9=
EXTT10=
EXTT11=
EXTT12=
EXTT13=
EXTT14=
PLAYORDER=
